<svg width="43" height="43" viewBox="0 0 43 43" fill="none" xmlns="http://www.w3.org/2000/svg">
<path fill-rule="evenodd" clip-rule="evenodd" d="M21.5 0C33.3745 0 43 9.86834 43 22.0438C43 31.7811 36.8467 40.0415 28.3091 42.959C27.219 43.1762 26.832 42.4878 26.832 41.9008C26.832 41.1741 26.8578 38.8006 26.8578 35.8508C26.8578 33.7954 26.1698 32.4539 25.398 31.7702C30.186 31.2241 35.217 29.3599 35.217 20.8932C35.217 18.4852 34.3828 16.5202 33.0025 14.9765C33.2261 14.4196 33.9636 12.1775 32.7918 9.14169C32.7918 9.14169 30.9901 8.55102 26.8857 11.4019C25.1679 10.9139 23.3275 10.6683 21.5 10.6597C19.6725 10.6683 17.8343 10.9139 16.1186 11.4019C12.0099 8.55102 10.2039 9.14169 10.2039 9.14169C9.03646 12.1775 9.7739 14.4196 9.99535 14.9765C8.6215 16.5202 7.78086 18.4852 7.78086 20.8932C7.78086 29.3384 12.8011 31.2312 17.5763 31.788C16.9614 32.3384 16.4045 33.3094 16.211 34.7348C14.9855 35.2981 11.8723 36.273 9.95449 32.904C9.95449 32.904 8.81715 30.786 6.65855 30.6312C6.65855 30.6312 4.5623 30.6033 6.51235 31.9707C6.51235 31.9707 7.9206 32.648 8.89885 35.1957C8.89885 35.1957 10.1609 39.1301 16.1422 37.7971C16.153 39.6397 16.1723 41.3762 16.1723 41.9008C16.1723 42.4835 15.7767 43.1654 14.7038 42.9611C6.15974 40.0479 0 31.7833 0 22.0438C0 9.86834 9.6277 0 21.5 0Z" fill="white"/>
</svg>
