<svg width="68" height="41" viewBox="0 0 68 41" fill="none" xmlns="http://www.w3.org/2000/svg">
<path d="M65.0968 3L41.6725 26.765C41.3518 27.093 40.9702 27.3534 40.5498 27.5311C40.1294 27.7088 39.6785 27.8003 39.2231 27.8003C38.7677 27.8003 38.3168 27.7088 37.8964 27.5311C37.476 27.3534 37.0944 27.093 36.7737 26.765L27.8732 17.735C27.5525 17.407 27.1709 17.1466 26.7506 16.9689C26.3302 16.7912 25.8793 16.6997 25.4238 16.6997C24.9684 16.6997 24.5175 16.7912 24.0971 16.9689C23.6767 17.1466 23.2952 17.407 22.9745 17.735L3 38M65.0968 3V17M65.0968 3H51.2975" stroke="#46FF29" stroke-width="5" stroke-linecap="round" stroke-linejoin="round"/>
</svg>
