<svg width="51" height="43" viewBox="0 0 51 43" fill="none" xmlns="http://www.w3.org/2000/svg">
<path d="M16.9009 28.0228C16.7309 28.3694 16.7309 28.7118 16.7309 29.0564C16.9009 30.156 17.8529 30.9642 18.9664 30.9493H21.7162V41.1071C21.7162 42.1408 20.8577 43 19.8249 43H13.9769C13.4767 42.995 12.9984 42.7936 12.6451 42.4392C12.2917 42.0848 12.0916 41.6056 12.0877 41.105V30.9514H2.10866C0.561647 30.9514 -0.471111 29.4009 0.217394 28.0228L15.0075 1.16707C15.2033 0.813418 15.4902 0.518681 15.8383 0.313456C16.1863 0.108231 16.583 0 16.987 0C17.3909 0 17.7876 0.108231 18.1356 0.313456C18.4837 0.518681 18.7706 0.813418 18.9664 1.16707L25.1566 13.0455L16.9009 28.0228ZM50.7843 28.0228L35.9942 1.16707C35.7982 0.813933 35.5114 0.519684 35.1635 0.314816C34.8157 0.109948 34.4194 0.00191651 34.0158 0.00191651C33.6122 0.00191651 33.2159 0.109948 32.868 0.314816C32.5202 0.519684 32.2334 0.813933 32.0374 1.16707L25.673 13.0476L33.9286 28.0206C34.1008 28.3694 34.1008 28.714 34.1008 29.0564C33.9308 30.156 32.9766 30.9642 31.8652 30.9493H29.1112V41.1071C29.1219 42.1493 29.9612 42.9936 31.0025 43H37.1948C37.6954 42.9956 38.1743 42.7949 38.5287 42.4409C38.8831 42.087 39.0848 41.6081 39.0903 41.1071V30.9514H48.8909C50.4421 30.9514 51.4706 29.4009 50.7821 28.0228H50.7843Z" fill="white"/>
</svg>
