<svg width="58" height="55" viewBox="0 0 58 55" fill="none" xmlns="http://www.w3.org/2000/svg">
<path d="M26.9138 15.7034L24.7302 14.4862L24.7301 14.4863L26.9138 15.7034ZM31.3267 15.7034L33.5104 14.4863L33.5103 14.4862L31.3267 15.7034ZM31.5806 16.159L33.7647 14.9425L33.7643 14.9419L31.5806 16.159ZM32.2164 17.0747L33.7279 15.0834L33.7277 15.0833L32.2164 17.0747ZM33.2464 17.4237L33.7981 14.9853L33.798 14.9853L33.2464 17.4237ZM33.7395 17.5353L33.1877 19.9736L33.1878 19.9736L33.7395 17.5353ZM35.1033 21.9201L37.0029 23.5453L37.0033 23.5448L35.1033 21.9201ZM34.7669 22.3133L32.8672 20.6881L32.8666 20.6888L34.7669 22.3133ZM34.1299 23.2282L31.7429 22.4848L31.7423 22.4869L34.1299 23.2282ZM34.1306 24.3596L31.6423 24.6005L31.6423 24.6011L34.1306 24.3596ZM34.1815 24.8841L36.6699 24.6431L36.6698 24.6426L34.1815 24.8841ZM33.8826 28.3762L35.3936 30.368L35.3945 30.3672L33.8826 28.3762ZM30.6116 27.5942L29.5658 29.865L29.5661 29.8651L30.6116 27.5942ZM30.15 27.3816L31.1957 25.1109L31.1953 25.1106L30.15 27.3816ZM28.0905 27.3816L27.0452 25.1106L27.0448 25.1109L28.0905 27.3816ZM27.6289 27.5942L28.6744 29.8651L28.6747 29.865L27.6289 27.5942ZM24.3579 28.3762L22.8458 30.3671L22.8469 30.368L24.3579 28.3762ZM24.059 24.8841L21.5707 24.6426L21.5706 24.643L24.059 24.8841ZM24.1099 24.3596L26.5982 24.6011L26.5982 24.6005L24.1099 24.3596ZM24.1106 23.2282L26.4982 22.4869L26.4976 22.4848L24.1106 23.2282ZM23.4735 22.3133L25.3735 20.6885L25.3735 20.6885L23.4735 22.3133ZM23.1373 21.9201L21.2373 23.545L21.2373 23.545L23.1373 21.9201ZM24.501 17.5353L25.0527 19.9736L25.0528 19.9736L24.501 17.5353ZM24.9942 17.4237L24.4425 14.9853L24.4424 14.9853L24.9942 17.4237ZM26.0241 17.0747L24.5128 15.0833L24.5126 15.0834L26.0241 17.0747ZM26.6599 16.159L24.4762 14.9419L24.4758 14.9425L26.6599 16.159ZM29 40L30.7011 38.168L28.9789 36.5688L27.2765 38.1891L29 40ZM19.3773 49.1584L17.6537 47.3474L17.6156 47.3838L17.5789 47.4217L19.3773 49.1584ZM16.6935 51.5753L15.7199 49.2727L15.7194 49.2729L16.6935 51.5753ZM13.1456 50.4175L10.9746 51.6571L10.9747 51.6573L13.1456 50.4175ZM12.5442 46.9282L10.0563 47.1736L10.0563 47.1736L12.5442 46.9282ZM12.2142 44.8011L14.5683 43.9594L14.5683 43.9594L12.2142 44.8011ZM10.058 42.5685L10.9526 40.2341L10.9525 40.234L10.058 42.5685ZM8.00374 42.2268L8.26708 39.7407L8.26657 39.7406L8.00374 42.2268ZM4.63376 41.6042L5.9393 39.4721L5.9389 39.4719L4.63376 41.6042ZM3.5153 37.9307L5.84076 38.8484L5.84077 38.8484L3.5153 37.9307ZM5.84968 35.1518L4.05144 33.415L4.05135 33.4151L5.84968 35.1518ZM38.8633 49.1584L40.6617 47.4217L40.6143 47.3727L40.5644 47.3263L38.8633 49.1584ZM41.5469 51.5753L42.5209 49.2729L42.5205 49.2727L41.5469 51.5753ZM45.0948 50.4175L47.2658 51.6572L47.2659 51.6571L45.0948 50.4175ZM45.6962 46.9282L48.1841 47.1737L48.1842 47.1734L45.6962 46.9282ZM46.0261 44.8011L43.6722 43.9591L43.6718 43.96L46.0261 44.8011ZM48.1824 42.5685L47.2881 40.234L47.2879 40.2341L48.1824 42.5685ZM50.2367 42.2268L49.9738 39.7406L49.9733 39.7407L50.2367 42.2268ZM53.6066 41.6042L52.3016 39.4719L52.3012 39.4721L53.6066 41.6042ZM54.7252 37.9307L57.0508 37.0131L57.0505 37.0125L54.7252 37.9307ZM52.3907 35.1518L50.5924 36.8886L50.5925 36.8886L52.3907 35.1518ZM14.649 15.0175C15.1628 13.7359 14.5403 12.2805 13.2587 11.7668C11.9771 11.2531 10.5217 11.8756 10.008 13.1572L14.649 15.0175ZM21.4654 1.69978C20.1838 2.21349 19.5613 3.66887 20.075 4.95046C20.5887 6.23204 22.0441 6.85453 23.3257 6.34083L21.4654 1.69978ZM29.0975 16.9207C29.3477 16.4718 29.5452 16.1179 29.7206 15.8216C29.8984 15.5214 30.0158 15.3454 30.0948 15.2424C30.1795 15.1317 30.1474 15.2024 29.9938 15.3051C29.7956 15.4376 29.487 15.5619 29.1203 15.5619V10.5619C27.5545 10.5619 26.6012 11.5806 26.1251 12.2023C25.6503 12.8223 25.1803 13.6787 24.7302 14.4862L29.0975 16.9207ZM29.1203 15.5619C28.7535 15.5619 28.4449 15.4376 28.2467 15.3051C28.0931 15.2024 28.061 15.1317 28.1457 15.2424C28.2247 15.3454 28.3421 15.5214 28.5199 15.8216C28.6953 16.1179 28.8928 16.4718 29.143 16.9207L33.5103 14.4862C33.0602 13.6787 32.5902 12.8223 32.1154 12.2023C31.6393 11.5806 30.686 10.5619 29.1203 10.5619V15.5619ZM29.143 16.9206L29.3969 17.3762L33.7643 14.9419L33.5104 14.4863L29.143 16.9206ZM29.3966 17.3756C29.567 17.6816 29.9715 18.5095 30.705 19.0662L33.7277 15.0833C33.8179 15.1517 33.8888 15.2213 33.9401 15.2795C33.9871 15.3329 34.0089 15.3669 34.0033 15.3584C33.9964 15.3481 33.9757 15.3156 33.9319 15.2398C33.8879 15.1635 33.837 15.0723 33.7647 14.9425L29.3966 17.3756ZM30.7049 19.0661C31.4536 19.6343 32.3675 19.788 32.6947 19.862L33.798 14.9853C33.7293 14.9697 33.6704 14.9564 33.6159 14.9439C33.5618 14.9314 33.5172 14.921 33.4789 14.9116C33.4407 14.9023 33.4128 14.8952 33.3924 14.8896C33.3719 14.8841 33.3627 14.8812 33.3617 14.8809C33.3585 14.8799 33.4033 14.8936 33.4733 14.9272C33.5092 14.9444 33.5504 14.9661 33.5951 14.9932C33.64 15.0204 33.6845 15.0505 33.7279 15.0834L30.7049 19.0661ZM32.6946 19.862L33.1877 19.9736L34.2913 15.0969L33.7981 14.9853L32.6946 19.862ZM33.1878 19.9736C33.6746 20.0838 34.0545 20.1699 34.375 20.2518C34.6995 20.3348 34.8873 20.3948 34.9959 20.4376C35.1099 20.4825 35.0291 20.4677 34.8888 20.3474C34.7111 20.195 34.5322 19.9548 34.4386 19.654L39.213 18.1689C38.7649 16.7284 37.6028 16.0906 36.829 15.7857C36.1022 15.4993 35.1594 15.2933 34.2912 15.0969L33.1878 19.9736ZM34.4386 19.654C34.3458 19.3554 34.3595 19.0703 34.4096 18.8696C34.4488 18.7127 34.4944 18.6712 34.4212 18.7874C34.3513 18.8985 34.2276 19.0692 34.0101 19.3375C33.7951 19.6029 33.5345 19.9079 33.2032 20.2954L37.0033 23.5448C37.5993 22.8479 38.235 22.1144 38.6525 21.4513C39.087 20.7612 39.6527 19.5824 39.213 18.1689L34.4386 19.654ZM33.2036 20.2949L32.8672 20.6881L36.6666 23.9385L37.0029 23.5453L33.2036 20.2949ZM32.8666 20.6888C32.6327 20.9625 32.0142 21.6138 31.7429 22.4848L36.5168 23.9715C36.4862 24.0698 36.4485 24.1539 36.4134 24.2191C36.3811 24.279 36.3579 24.3098 36.3635 24.3022C36.3706 24.2924 36.3934 24.2622 36.4486 24.1957C36.5042 24.1285 36.5712 24.0501 36.6672 23.9378L32.8666 20.6888ZM31.7423 22.4869C31.4751 23.3474 31.6066 24.2326 31.6423 24.6005L36.619 24.1187C36.6045 23.9693 36.5943 23.8634 36.587 23.7737C36.5797 23.6847 36.578 23.6433 36.5777 23.6274C36.5774 23.6139 36.579 23.6487 36.5719 23.7127C36.5641 23.7825 36.5479 23.8713 36.5174 23.9694L31.7423 22.4869ZM31.6423 24.6011L31.6932 25.1255L36.6698 24.6426L36.6189 24.1182L31.6423 24.6011ZM31.6932 25.125C31.7432 25.6416 31.7826 26.0504 31.8074 26.3992C31.8326 26.7522 31.837 26.9715 31.8308 27.1103C31.8242 27.2573 31.8095 27.2002 31.8661 27.0488C31.9394 26.8533 32.0975 26.5926 32.3707 26.3852L35.3945 30.3672C36.5987 29.4528 36.7908 28.1198 36.8258 27.3326C36.8607 26.5496 36.7603 25.5765 36.6699 24.6431L31.6932 25.125ZM32.3717 26.3844C32.6486 26.1744 32.9636 26.08 33.2183 26.0644C33.4181 26.0521 33.5014 26.0931 33.3822 26.059C33.2709 26.0271 33.085 25.9603 32.7749 25.8277C32.4691 25.697 32.1128 25.5331 31.6571 25.3234L29.5661 29.8651C30.3788 30.2393 31.256 30.651 32.0052 30.8656C32.7867 31.0895 34.1486 31.3124 35.3936 30.368L32.3717 26.3844ZM31.6574 25.3235L31.1957 25.1109L29.1042 29.6524L29.5658 29.865L31.6574 25.3235ZM31.1953 25.1106C30.8981 24.9739 30.0656 24.5313 29.1203 24.5313V29.5313C29.0625 29.5313 29.0059 29.5281 28.9514 29.5222C28.8972 29.5164 28.8495 29.5083 28.8095 29.4998C28.7316 29.4835 28.6868 29.4667 28.6906 29.4681C28.6917 29.4685 28.701 29.472 28.721 29.4802C28.741 29.4884 28.7678 29.4998 28.8042 29.5159C28.8407 29.5319 28.8828 29.5509 28.9338 29.5742C28.985 29.5975 29.0403 29.623 29.1047 29.6526L31.1953 25.1106ZM29.1203 24.5313C28.1749 24.5313 27.3424 24.9739 27.0452 25.1106L29.1358 29.6526C29.2002 29.623 29.2555 29.5975 29.3067 29.5742C29.3576 29.5509 29.3998 29.5319 29.4363 29.5159C29.4727 29.4998 29.4995 29.4884 29.5195 29.4802C29.5395 29.472 29.5488 29.4685 29.5499 29.4681C29.5537 29.4667 29.5089 29.4835 29.431 29.4998C29.391 29.5083 29.3433 29.5164 29.2891 29.5222C29.2346 29.5281 29.178 29.5313 29.1203 29.5313V24.5313ZM27.0448 25.1109L26.5831 25.3235L28.6747 29.865L29.1363 29.6524L27.0448 25.1109ZM26.5834 25.3234C26.1277 25.5331 25.7714 25.697 25.4656 25.8277C25.1555 25.9603 24.9696 26.0271 24.8583 26.059C24.7391 26.0931 24.8224 26.0521 25.0222 26.0644C25.2769 26.08 25.5919 26.1744 25.8688 26.3844L22.8469 30.368C24.0919 31.3124 25.4538 31.0895 26.2353 30.8656C26.9845 30.651 27.8617 30.2393 28.6744 29.8651L26.5834 25.3234ZM25.8699 26.3853C26.1431 26.5928 26.3012 26.8534 26.3744 27.0488C26.431 27.2001 26.4163 27.2572 26.4097 27.1102C26.4035 26.9714 26.4079 26.7521 26.433 26.3992C26.4579 26.0504 26.4973 25.6416 26.5473 25.1251L21.5706 24.643C21.4802 25.5765 21.3798 26.5496 21.4147 27.3327C21.4497 28.12 21.6419 29.4527 22.8458 30.3671L25.8699 26.3853ZM26.5473 25.1255L26.5982 24.6011L21.6216 24.1182L21.5707 24.6426L26.5473 25.1255ZM26.5982 24.6005C26.6339 24.2326 26.7654 23.3474 26.4982 22.4869L21.7231 23.9694C21.6926 23.8713 21.6764 23.7825 21.6686 23.7127C21.6615 23.6487 21.6631 23.6139 21.6628 23.6274C21.6625 23.6433 21.6608 23.6847 21.6535 23.7737C21.6462 23.8634 21.636 23.9693 21.6215 24.1187L26.5982 24.6005ZM26.4976 22.4848C26.2263 21.6137 25.6081 20.9627 25.3735 20.6885L21.5736 23.9381C21.6695 24.0503 21.7365 24.1288 21.7921 24.1958C21.8472 24.2623 21.8699 24.2925 21.877 24.3022C21.8825 24.3098 21.8593 24.2789 21.827 24.219C21.7919 24.1538 21.7543 24.0697 21.7237 23.9715L26.4976 22.4848ZM25.3735 20.6885L25.0373 20.2953L21.2373 23.545L21.5736 23.9381L25.3735 20.6885ZM25.0373 20.2953C24.706 19.9078 24.4453 19.6028 24.2304 19.3375C24.013 19.0692 23.8893 18.8985 23.8194 18.7875C23.7462 18.6713 23.7918 18.7128 23.831 18.8697C23.8811 19.0704 23.8948 19.3554 23.802 19.6538L19.0275 18.1691C18.588 19.5823 19.1534 20.761 19.588 21.4512C20.0055 22.1144 20.6412 22.8479 21.2373 23.545L25.0373 20.2953ZM23.802 19.6538C23.7085 19.9546 23.5296 20.1949 23.3519 20.3473C23.2115 20.4677 23.1306 20.4825 23.2446 20.4376C23.3532 20.3948 23.541 20.3348 23.8655 20.2518C24.1859 20.1699 24.5659 20.0838 25.0527 19.9736L23.9493 15.0969C23.0811 15.2933 22.1382 15.4993 21.4114 15.7857C20.6375 16.0907 19.4755 16.7286 19.0275 18.1691L23.802 19.6538ZM25.0528 19.9736L25.5459 19.862L24.4424 14.9853L23.9492 15.0969L25.0528 19.9736ZM25.5458 19.862C25.873 19.788 26.7869 19.6343 27.5356 19.0661L24.5126 15.0834C24.556 15.0505 24.6005 15.0204 24.6454 14.9932C24.6901 14.9661 24.7313 14.9444 24.7672 14.9272C24.8372 14.8936 24.882 14.8799 24.8788 14.8809C24.8778 14.8812 24.8686 14.8841 24.8481 14.8896C24.8277 14.8952 24.7998 14.9023 24.7616 14.9116C24.7233 14.921 24.6787 14.9314 24.6246 14.9439C24.5701 14.9564 24.5112 14.9697 24.4425 14.9853L25.5458 19.862ZM27.5355 19.0662C28.269 18.5095 28.6735 17.6816 28.8439 17.3756L24.4758 14.9425C24.4035 15.0723 24.3526 15.1635 24.3086 15.2398C24.2648 15.3156 24.2441 15.3481 24.2372 15.3584C24.2316 15.3669 24.2534 15.3329 24.3004 15.2795C24.3517 15.2213 24.4226 15.1517 24.5128 15.0833L27.5355 19.0662ZM28.8436 17.3762L29.0975 16.9206L24.7301 14.4863L24.4762 14.9419L28.8436 17.3762ZM27.2765 38.1891L17.6537 47.3474L21.1008 50.9693L30.7235 41.8109L27.2765 38.1891ZM17.5789 47.4217C16.8609 48.1652 16.3934 48.648 16.0328 48.9828C15.647 49.341 15.5909 49.3272 15.7199 49.2727L17.6671 53.878C18.3869 53.5736 18.9751 53.0738 19.4346 52.6471C19.9193 52.1972 20.4983 51.5964 21.1756 50.895L17.5789 47.4217ZM15.7194 49.2729C15.5958 49.3252 15.5071 49.3151 15.4559 49.2984C15.4065 49.2823 15.3579 49.2502 15.3165 49.1776L10.9747 51.6573C12.3336 54.0367 15.1979 54.9227 17.6677 53.8777L15.7194 49.2729ZM15.3166 49.1778C15.4005 49.3248 15.3505 49.328 15.2711 48.8192C15.1973 48.3471 15.132 47.6948 15.0322 46.6827L10.0563 47.1736C10.1502 48.1249 10.2301 48.9451 10.3309 49.5907C10.426 50.1997 10.5799 50.9659 10.9746 51.6571L15.3166 49.1778ZM15.0322 46.6828C14.9368 45.7157 14.8634 44.7849 14.5683 43.9594L9.86015 45.6427C9.89696 45.7457 9.933 45.9237 10.0563 47.1736L15.0322 46.6828ZM14.5683 43.9594C13.9588 42.2548 12.6582 40.8877 10.9526 40.2341L9.16344 44.903C9.46545 45.0187 9.72645 45.2688 9.86016 45.6427L14.5683 43.9594ZM10.9525 40.234C10.1234 39.9164 9.18825 39.8383 8.26708 39.7407L7.7404 44.7129C8.29887 44.772 8.63215 44.8079 8.88415 44.8467C9.11806 44.8827 9.17076 44.9058 9.16356 44.903L10.9525 40.234ZM8.26657 39.7406C7.28604 39.637 6.66471 39.5702 6.21753 39.4953C5.73609 39.4147 5.77037 39.3687 5.9393 39.4721L3.32822 43.7362C4.0228 44.1615 4.79397 44.3266 5.39204 44.4267C6.02439 44.5326 6.82522 44.6161 7.74091 44.7129L8.26657 39.7406ZM5.9389 39.4719C5.87647 39.4337 5.6921 39.2251 5.84076 38.8484L1.18984 37.013C0.23826 39.4242 0.995464 42.3084 3.32862 43.7365L5.9389 39.4719ZM5.84077 38.8484C5.79878 38.9548 5.79742 38.8854 6.13962 38.4903C6.46357 38.1162 6.93014 37.6318 7.64801 36.8885L4.05135 33.4151C3.37391 34.1166 2.79399 34.7158 2.35994 35.2171C1.94414 35.6972 1.47324 36.2948 1.18984 37.013L5.84077 38.8484ZM7.64792 36.8886L14.0125 30.2987L10.416 26.8252L4.05144 33.415L7.64792 36.8886ZM27.2989 41.832L37.1622 50.9904L40.5644 47.3263L30.7011 38.168L27.2989 41.832ZM37.0649 50.895C37.7422 51.5963 38.3211 52.1971 38.8057 52.6471C39.2652 53.0737 39.8534 53.5736 40.5733 53.878L42.5205 49.2727C42.6495 49.3273 42.5935 49.3411 42.2078 48.9829C41.8471 48.6481 41.3797 48.1653 40.6617 47.4217L37.0649 50.895ZM40.5728 53.8778C43.0425 54.9226 45.9069 54.0368 47.2658 51.6572L42.9238 49.1778C42.8824 49.2503 42.8339 49.2823 42.7846 49.2984C42.7334 49.3151 42.6446 49.3252 42.5209 49.2729L40.5728 53.8778ZM47.2659 51.6571C47.6605 50.9658 47.8143 50.1997 47.9095 49.5907C48.0103 48.9452 48.0903 48.125 48.1841 47.1737L43.2083 46.6827C43.1084 47.6947 43.0431 48.347 42.9693 48.8192C42.8899 49.3279 42.8399 49.3248 42.9238 49.1779L47.2659 51.6571ZM48.1842 47.1734C48.3073 45.924 48.3435 45.7454 48.3804 45.6422L43.6718 43.96C43.377 44.7851 43.3037 45.7153 43.2083 46.6829L48.1842 47.1734ZM48.3801 45.6431C48.514 45.2687 48.775 45.0187 49.0769 44.903L47.2879 40.2341C45.582 40.8877 44.2817 42.2549 43.6722 43.9591L48.3801 45.6431ZM49.0767 44.9031C49.0697 44.9058 49.1225 44.8827 49.3564 44.8467C49.6084 44.8079 49.9416 44.772 50.5 44.7129L49.9733 39.7407C49.0522 39.8383 48.1172 39.9164 47.2881 40.234L49.0767 44.9031ZM50.4995 44.7129C51.4152 44.6161 52.216 44.5326 52.8483 44.4267C53.4464 44.3266 54.2175 44.1615 54.9121 43.7363L52.3012 39.4721C52.47 39.3687 52.5042 39.4147 52.0228 39.4953C51.5757 39.5702 50.9543 39.637 49.9738 39.7406L50.4995 44.7129ZM54.9117 43.7365C57.2451 42.3084 58.002 39.4242 57.0508 37.0131L52.3997 38.8482C52.5484 39.2252 52.3639 39.4337 52.3016 39.4719L54.9117 43.7365ZM57.0505 37.0125C56.7671 36.2947 56.2964 35.6973 55.8805 35.217C55.4464 34.7158 54.8665 34.1166 54.1889 33.415L50.5925 36.8886C51.3104 37.6319 51.7769 38.1163 52.1008 38.4903C52.443 38.8853 52.4418 38.9549 52.3999 38.8488L57.0505 37.0125ZM54.1889 33.415L47.8243 26.8252L44.2279 30.2987L50.5924 36.8886L54.1889 33.415ZM10.008 13.1572C9.05818 15.5267 8.53687 18.1115 8.53687 20.812H13.5369C13.5369 18.7594 13.9324 16.8054 14.649 15.0175L10.008 13.1572ZM8.53687 20.812C8.53687 32.1798 17.7523 41.3953 29.1202 41.3953V36.3953C20.5138 36.3953 13.5369 29.4184 13.5369 20.812H8.53687ZM29.1202 41.3953C40.4881 41.3953 49.7035 32.1798 49.7035 20.812H44.7035C44.7035 29.4184 37.7267 36.3953 29.1202 36.3953V41.3953ZM49.7035 20.812C49.7035 9.44412 40.4881 0.228638 29.1202 0.228638V5.22864C37.7267 5.22864 44.7035 12.2055 44.7035 20.812H49.7035ZM29.1202 0.228638C26.4198 0.228638 23.835 0.749955 21.4654 1.69978L23.3257 6.34083C25.1137 5.62415 27.0677 5.22864 29.1202 5.22864V0.228638Z" fill="#59289F"/>
</svg>
