<svg width="38" height="38" viewBox="0 0 38 38" fill="none" xmlns="http://www.w3.org/2000/svg">
<path fill-rule="evenodd" clip-rule="evenodd" d="M31.4688 34.2H6.53253C5.19039 34.2 4.19929 32.8757 4.7055 31.6578C7.05425 26.0262 12.5722 22.8 18.9997 22.8C25.4292 22.8 30.9471 26.0262 33.2959 31.6578C33.8021 32.8757 32.811 34.2 31.4688 34.2ZM11.2417 11.4C11.2417 7.20858 14.7231 3.79997 18.9997 3.79997C23.2783 3.79997 26.7578 7.20858 26.7578 11.4C26.7578 15.5914 23.2783 19 18.9997 19C14.7231 19 11.2417 15.5914 11.2417 11.4ZM37.9158 33.5084C36.5058 27.1263 32.0953 22.4161 26.2903 20.2786C29.3664 17.8523 31.1605 13.9288 30.501 9.63288C29.7369 4.64917 25.5048 0.661157 20.3962 0.0797561C13.3441 -0.723945 7.36263 4.65307 7.36263 11.4C7.36263 14.991 9.06165 18.1905 11.711 20.2786C5.90413 22.4161 1.49561 27.1263 0.0836456 33.5084C-0.428386 35.8283 1.4801 38 3.90255 38H34.0969C36.5213 38 38.4297 35.8283 37.9158 33.5084Z" fill="white"/>
</svg>
