<svg width="58" height="58" viewBox="0 0 58 58" fill="none" xmlns="http://www.w3.org/2000/svg">
<path fill-rule="evenodd" clip-rule="evenodd" d="M40.8411 17.4C40.8411 11.0026 35.5303 5.79996 29 5.79996C22.4697 5.79996 17.1589 11.0026 17.1589 17.4C17.1589 23.7974 22.4697 29 29 29C35.5303 29 40.8411 23.7974 40.8411 17.4ZM52.0427 58H46.7616C45.1275 58 43.8013 56.7008 43.8013 55.1C43.8013 53.4992 45.1275 52.2 46.7616 52.2H48.0315C50.08 52.2 51.5927 50.1787 50.8171 48.3198C47.2323 39.7242 38.8133 34.8 29 34.8C19.1867 34.8 10.7677 39.7242 7.18286 48.3198C6.40727 50.1787 7.92001 52.2 9.96851 52.2H11.2384C12.8725 52.2 14.1987 53.4992 14.1987 55.1C14.1987 56.7008 12.8725 58 11.2384 58H5.9573C2.25697 58 -0.655927 54.6853 0.128542 51.1444C2.28361 41.4032 9.01233 34.2141 17.8754 30.9516C13.8316 27.7645 11.2384 22.881 11.2384 17.4C11.2384 7.10206 20.3679 -1.10497 31.1284 0.121733C38.9258 1.00913 45.385 7.09611 46.5543 14.7028C47.5608 21.2597 44.8226 27.2483 40.1246 30.9516C48.9877 34.2141 55.7164 41.4032 57.8715 51.1444C58.6559 54.6853 55.743 58 52.0427 58ZM38.239 44.8456C39.3964 45.9795 39.3964 47.8153 38.239 48.9492L29 58L22.7213 51.8492C21.5638 50.7153 21.5638 48.8795 22.7213 47.7456C23.8758 46.6146 25.7497 46.6146 26.9071 47.7456L29 49.7988L34.0531 44.8456C35.2106 43.7146 37.0845 43.7146 38.239 44.8456Z" fill="#46FF29"/>
</svg>
