<svg width="55" height="58" viewBox="0 0 55 58" fill="none" xmlns="http://www.w3.org/2000/svg">
<path d="M27.5 12.4286C31.0049 12.4286 33.8462 9.64634 33.8462 6.21429C33.8462 2.78223 31.0049 0 27.5 0C23.9951 0 21.1538 2.78223 21.1538 6.21429C21.1538 9.64634 23.9951 12.4286 27.5 12.4286Z" fill="#46FF29"/>
<path d="M50.7692 14.5H4.23077C3.1087 14.5 2.03259 14.9365 1.23916 15.7134C0.445741 16.4904 0 17.5441 0 18.6429C0 19.7416 0.445741 20.7954 1.23916 21.5723C2.03259 22.3492 3.1087 22.7857 4.23077 22.7857H19.0385V32.7286L14.8077 53.0286C14.6168 54.1237 14.8611 55.2489 15.4905 56.1733C16.1198 57.0977 17.0865 57.7513 18.1923 58H19.0385C20.0182 57.9819 20.9644 57.647 21.7296 57.0476C22.4948 56.4481 23.0361 55.6177 23.2692 54.6857L27.0769 35.2143H27.9231L31.7308 54.6857C31.9639 55.6177 32.5052 56.4481 33.2704 57.0476C34.0356 57.647 34.9818 57.9819 35.9615 58H36.8077C37.9135 57.7513 38.8802 57.0977 39.5095 56.1733C40.1389 55.2489 40.3832 54.1237 40.1923 53.0286L35.9615 32.7286V22.7857H50.7692C51.8913 22.7857 52.9674 22.3492 53.7608 21.5723C54.5543 20.7954 55 19.7416 55 18.6429C55 17.5441 54.5543 16.4904 53.7608 15.7134C52.9674 14.9365 51.8913 14.5 50.7692 14.5Z" fill="#46FF29"/>
</svg>
