<svg width="389" height="136" viewBox="0 0 389 136" fill="none" xmlns="http://www.w3.org/2000/svg">
<path d="M131.994 64.1186C127.072 64.1186 122.617 63.3274 118.632 61.745C114.706 60.1626 111.306 57.9356 108.435 55.0638C105.563 52.1921 103.365 48.8222 101.841 44.9542C100.318 41.0861 99.5557 36.8665 99.5557 32.2951C99.5557 27.7238 100.376 23.5041 102.017 19.6361C103.658 15.768 105.944 12.3981 108.874 9.52642C111.863 6.65469 115.379 4.42763 119.423 2.84525C123.526 1.26287 128.009 0.47168 132.874 0.47168C136.214 0.47168 139.379 0.91123 142.368 1.79033C145.415 2.66943 148.17 3.87087 150.631 5.39464C153.152 6.91842 155.232 8.64732 156.873 10.5813L147.642 20.2514C145.533 18.2588 143.247 16.7057 140.785 15.5922C138.383 14.4201 135.657 13.834 132.61 13.834C130.09 13.834 127.746 14.3029 125.577 15.2406C123.467 16.1197 121.592 17.409 119.951 19.1086C118.368 20.7496 117.138 22.7129 116.259 24.9986C115.379 27.2256 114.94 29.6578 114.94 32.2951C114.94 34.9324 115.409 37.3646 116.346 39.5917C117.284 41.8187 118.574 43.7821 120.215 45.4816C121.914 47.1226 123.877 48.412 126.105 49.3497C128.332 50.2874 130.734 50.7562 133.313 50.7562C135.13 50.7562 136.8 50.4925 138.324 49.9651C139.906 49.379 141.284 48.6171 142.456 47.6794C143.687 46.6831 144.624 45.5402 145.269 44.2509C145.972 42.9029 146.324 41.4671 146.324 39.9433V37.6576L148.258 40.6466H131.467V28.7787H160.389C160.507 29.4234 160.595 30.3025 160.653 31.416C160.712 32.5296 160.741 33.6138 160.741 34.6687C160.8 35.665 160.829 36.4562 160.829 37.0423C160.829 41.0275 160.096 44.6905 158.631 48.031C157.225 51.313 155.203 54.1554 152.565 56.5583C149.987 58.9612 146.939 60.8366 143.423 62.1846C139.906 63.4739 136.097 64.1186 131.994 64.1186Z" fill="white"/>
<path d="M173.334 92.8176L187.312 58.4923L187.488 65.8768L164.895 16.5592H180.894L190.74 40.1191C191.268 41.2327 191.766 42.4927 192.235 43.8993C192.704 45.3058 193.055 46.6245 193.29 47.8552L191.268 48.998C191.619 48.1189 192 47.0054 192.411 45.6575C192.88 44.3095 193.378 42.8736 193.905 41.3499L202.52 16.5592H218.608L198.828 63.2395L187.488 92.8176H173.334Z" fill="white"/>
<path d="M225.209 63.2395V16.5592H238.66L239.099 24.9986L237.165 25.1744C237.81 23.6506 238.689 22.3027 239.802 21.1306C240.916 19.9584 242.147 18.9914 243.495 18.2295C244.901 17.409 246.366 16.7937 247.89 16.3834C249.414 15.9146 250.938 15.6801 252.462 15.6801C254.806 15.6801 256.886 16.0318 258.703 16.735C260.579 17.4383 262.19 18.5812 263.538 20.1635C264.945 21.7459 266.058 23.8558 266.879 26.4931L264.769 26.1414L265.384 24.9107C266.205 23.5041 267.201 22.2441 268.373 21.1306C269.604 19.9584 270.952 18.9621 272.417 18.1416C273.882 17.3211 275.377 16.7057 276.901 16.2955C278.483 15.8852 280.007 15.6801 281.472 15.6801C285.164 15.6801 288.241 16.4127 290.702 17.8779C293.164 19.343 295.01 21.5115 296.241 24.3832C297.471 27.1963 298.087 30.6834 298.087 34.8445V63.2395H283.933V35.8994C283.933 33.1449 283.347 31.0937 282.175 29.7457C281.062 28.3392 279.362 27.6359 277.076 27.6359C275.846 27.6359 274.703 27.841 273.648 28.2513C272.652 28.6029 271.772 29.1597 271.011 29.9216C270.307 30.6248 269.751 31.4453 269.34 32.383C268.93 33.3208 268.725 34.3757 268.725 35.5478V63.2395H254.571V35.8115C254.571 33.1742 253.956 31.1523 252.725 29.7457C251.553 28.3392 249.883 27.6359 247.714 27.6359C246.542 27.6359 245.429 27.841 244.374 28.2513C243.377 28.6029 242.498 29.1597 241.736 29.9216C241.033 30.6248 240.476 31.4453 240.066 32.383C239.656 33.3208 239.451 34.3757 239.451 35.5478V63.2395H225.209Z" fill="white"/>
<path d="M208.528 134.663V73.1257H236.395C240.38 73.1257 243.955 73.9755 247.12 75.6751C250.285 77.3747 252.776 79.719 254.592 82.7079C256.468 85.6382 257.406 89.0081 257.406 92.8176C257.406 96.6856 256.468 100.143 254.592 103.191C252.776 106.238 250.285 108.671 247.12 110.487C243.955 112.246 240.38 113.125 236.395 113.125H222.857V134.663H208.528ZM242.725 134.663L227.077 106.795L242.461 104.598L259.867 134.751L242.725 134.663ZM222.857 101.433H235.076C236.6 101.433 237.919 101.11 239.032 100.466C240.204 99.7625 241.084 98.8247 241.67 97.6526C242.314 96.4805 242.637 95.1325 242.637 93.6087C242.637 92.0264 242.256 90.6491 241.494 89.477C240.791 88.3048 239.765 87.3964 238.417 86.7518C237.128 86.0485 235.575 85.6968 233.758 85.6968H222.857V101.433Z" fill="white"/>
<path d="M292.18 134.663V106.004C292.18 103.601 291.506 101.843 290.158 100.729C288.869 99.5573 287.052 98.9713 284.708 98.9713C282.422 98.9713 280.371 99.4108 278.554 100.29C276.796 101.11 275.096 102.488 273.455 104.422L265.016 96.246C267.829 93.3743 271.052 91.118 274.686 89.477C278.32 87.836 282.276 87.0155 286.554 87.0155C290.481 87.0155 293.88 87.6015 296.751 88.7737C299.623 89.9458 301.85 91.7333 303.433 94.1362C305.015 96.5391 305.806 99.5866 305.806 103.279V134.663H292.18ZM280.049 135.542C277.118 135.542 274.452 134.956 272.049 133.784C269.704 132.612 267.829 131 266.423 128.949C265.075 126.839 264.401 124.377 264.401 121.564C264.401 119.161 264.84 117.051 265.719 115.235C266.598 113.418 267.888 111.923 269.587 110.751C271.345 109.52 273.514 108.612 276.093 108.026C278.73 107.381 281.777 107.059 285.235 107.059H299.389L298.598 115.938H285.587C284.356 115.938 283.272 116.055 282.334 116.29C281.397 116.465 280.605 116.788 279.961 117.257C279.316 117.667 278.818 118.165 278.466 118.751C278.173 119.337 278.027 120.04 278.027 120.861C278.027 121.74 278.261 122.502 278.73 123.147C279.199 123.791 279.814 124.289 280.576 124.641C281.397 124.993 282.334 125.168 283.389 125.168C284.913 125.168 286.349 124.934 287.697 124.465C289.103 123.938 290.334 123.205 291.389 122.267C292.503 121.33 293.382 120.245 294.026 119.015L296.488 125.344C295.257 127.337 293.763 129.095 292.004 130.619C290.305 132.143 288.429 133.344 286.378 134.223C284.385 135.102 282.276 135.542 280.049 135.542Z" fill="white"/>
<path d="M320.962 134.663V76.2025H335.116V134.663H320.962ZM312.699 100.378V87.9825H344.083V100.378H312.699Z" fill="white"/>
<path d="M369.66 135.542C365.206 135.542 361.22 134.839 357.704 133.432C354.188 131.967 351.375 129.974 349.265 127.454L357.88 120.07C359.697 121.886 361.748 123.234 364.034 124.114C366.319 124.934 368.488 125.344 370.539 125.344C371.301 125.344 371.975 125.256 372.561 125.081C373.147 124.905 373.645 124.67 374.055 124.377C374.524 124.026 374.876 123.645 375.11 123.234C375.345 122.766 375.462 122.238 375.462 121.652C375.462 120.48 374.964 119.601 373.967 119.015C373.499 118.722 372.649 118.37 371.418 117.96C370.187 117.491 368.605 117.022 366.671 116.553C363.916 115.85 361.514 115 359.462 114.004C357.47 113.008 355.829 111.865 354.539 110.575C353.367 109.403 352.459 108.055 351.814 106.532C351.228 105.008 350.935 103.308 350.935 101.433C350.935 98.561 351.785 96.0409 353.484 93.8725C355.243 91.704 357.528 90.0337 360.341 88.8616C363.155 87.6309 366.202 87.0155 369.484 87.0155C372.063 87.0155 374.495 87.3085 376.781 87.8946C379.125 88.4807 381.293 89.3011 383.286 90.3561C385.337 91.411 387.154 92.671 388.736 94.1362L381.264 102.488C380.268 101.491 379.096 100.612 377.748 99.8504C376.4 99.0299 375.052 98.3852 373.704 97.9163C372.356 97.3889 371.096 97.1251 369.924 97.1251C369.044 97.1251 368.253 97.2131 367.55 97.3889C366.905 97.5061 366.349 97.7405 365.88 98.0922C365.469 98.3852 365.147 98.7661 364.913 99.235C364.678 99.6452 364.561 100.114 364.561 100.642C364.561 101.286 364.708 101.872 365.001 102.4C365.352 102.869 365.821 103.308 366.407 103.718C366.935 104.011 367.843 104.392 369.132 104.861C370.48 105.33 372.239 105.858 374.407 106.444C377.162 107.206 379.506 108.085 381.44 109.081C383.432 110.019 385.015 111.132 386.187 112.422C387.183 113.418 387.887 114.59 388.297 115.938C388.766 117.227 389 118.634 389 120.158C389 123.147 388.15 125.813 386.451 128.157C384.81 130.443 382.524 132.26 379.594 133.608C376.722 134.897 373.411 135.542 369.66 135.542Z" fill="white"/>
<path d="M0 103.034H195.051V136H0V103.034Z" fill="#59289F"/>
<path d="M0 74.646H171.242L165.315 92.9606H0V74.646Z" fill="#59289F"/>
<path d="M333.069 32.7536H363.284V47.033H333.069V32.7536Z" fill="#D9D9D9"/>
<path d="M377.198 17.8709V60.709H363.284V17.8708L377.198 17.8709Z" fill="#46FF29"/>
<path d="M388.926 27.9268V50.6531H380.18V27.9268L388.926 27.9268Z" fill="#46FF29"/>
<path d="M316.173 28.329L316.173 51.0554H307.426L307.426 28.329L316.173 28.329Z" fill="#46FF29"/>
<path d="M333.069 18.072L333.069 60.9102H319.154L319.154 18.072L333.069 18.072Z" fill="#46FF29"/>
</svg>
