<svg width="620" height="291" viewBox="0 0 620 291" fill="none" xmlns="http://www.w3.org/2000/svg">
<path d="M69.4402 136.817C58.9018 136.817 49.3671 135.123 40.8361 131.736C32.4305 128.348 25.154 123.581 19.0067 117.434C12.8593 111.286 8.15467 104.073 4.89281 95.7924C1.63093 87.5123 0 78.4794 0 68.6938C0 58.9082 1.75639 49.8753 5.26917 41.5952C8.78196 33.3151 13.6748 26.1013 19.9476 19.954C26.3459 13.8066 33.8733 9.03924 42.5298 5.65191C51.3117 2.26459 60.9091 0.570923 71.322 0.570923C78.4731 0.570923 85.2477 1.51185 91.646 3.39369C98.1697 5.27555 104.066 7.8474 109.335 11.1093C114.73 14.3711 119.184 18.0721 122.696 22.2122L102.937 42.9125C98.4207 38.647 93.5278 35.3224 88.2587 32.9387C83.115 30.4296 77.2812 29.175 70.7575 29.175C65.3629 29.175 60.3446 30.1787 55.7027 32.186C51.1863 34.0678 47.1717 36.8279 43.6589 40.4661C40.2715 43.9789 37.637 48.1817 35.7551 53.0745C33.8733 57.8418 32.9323 63.0483 32.9323 68.6938C32.9323 74.3394 33.936 79.5458 35.9433 84.3132C37.9506 89.0805 40.7106 93.2833 44.2234 96.9215C47.8617 100.434 52.0645 103.194 56.8318 105.202C61.5992 107.209 66.7429 108.213 72.263 108.213C76.1521 108.213 79.7276 107.648 82.9895 106.519C86.3768 105.264 89.3251 103.633 91.8342 101.626C94.4688 99.4934 96.4761 97.047 97.8561 94.287C99.3616 91.4015 100.114 88.3278 100.114 85.0659V80.1731L104.254 86.5714H68.3111V61.1664H130.224C130.475 62.5465 130.663 64.4283 130.788 66.812C130.914 69.1956 130.977 71.5166 130.977 73.7748C131.102 75.9076 131.165 77.6012 131.165 78.8558C131.165 87.3868 129.597 95.2279 126.46 102.379C123.449 109.404 119.121 115.489 113.475 120.633C107.955 125.777 101.432 129.791 93.9042 132.677C86.3768 135.437 78.2222 136.817 69.4402 136.817Z" fill="white"/>
<path d="M157.934 198.251L187.855 124.773L188.232 140.58L139.868 35.0087H174.118L195.195 85.4423C196.324 87.826 197.39 90.5233 198.394 93.5342C199.397 96.5452 200.15 99.3679 200.652 102.003L196.324 104.449C197.077 102.567 197.892 100.183 198.77 97.2979C199.774 94.4124 200.84 91.3387 201.969 88.0769L220.411 35.0087H254.849L212.508 134.935L188.232 198.251H157.934Z" fill="white"/>
<path d="M268.981 134.935V35.0087H297.773L298.714 53.0745L294.574 53.4509C295.954 50.189 297.836 47.3035 300.219 44.7943C302.603 42.2852 305.238 40.2152 308.123 38.5843C311.134 36.8279 314.271 35.5106 317.532 34.6324C320.794 33.6287 324.056 33.1269 327.318 33.1269C332.336 33.1269 336.79 33.8796 340.679 35.3851C344.694 36.8906 348.144 39.337 351.029 42.7243C354.04 46.1116 356.424 50.6281 358.18 56.2736L353.664 55.5209L354.981 52.8863C356.738 49.8753 358.87 47.178 361.38 44.7943C364.014 42.2852 366.9 40.1525 370.036 38.3961C373.172 36.6397 376.372 35.3224 379.633 34.4442C383.021 33.566 386.283 33.1269 389.419 33.1269C397.323 33.1269 403.909 34.6951 409.178 37.8315C414.448 40.9679 418.4 45.6098 421.034 51.7572C423.669 57.7791 424.986 65.2438 424.986 74.1512V134.935H394.688V76.4094C394.688 70.5129 393.434 66.122 390.924 63.2365C388.541 60.2255 384.903 58.72 380.01 58.72C377.375 58.72 374.929 59.1591 372.671 60.0373C370.538 60.7901 368.656 61.9819 367.025 63.6128C365.52 65.1183 364.328 66.8747 363.45 68.882C362.571 70.8893 362.132 73.1475 362.132 75.6567V134.935H331.834V76.2212C331.834 70.5757 330.517 66.2474 327.883 63.2365C325.373 60.2255 321.798 58.72 317.156 58.72C314.647 58.72 312.263 59.1591 310.005 60.0373C307.872 60.7901 305.99 61.9819 304.359 63.6128C302.854 65.1183 301.662 66.8747 300.784 68.882C299.906 70.8893 299.467 73.1475 299.467 75.6567V134.935H268.981Z" fill="white"/>
<path d="M233.271 287.827V156.098H292.925C301.456 156.098 309.109 157.917 315.884 161.555C322.659 165.193 327.99 170.212 331.88 176.61C335.894 182.883 337.901 190.097 337.901 198.251C337.901 206.531 335.894 213.933 331.88 220.457C327.99 226.981 322.659 232.187 315.884 236.076C309.109 239.84 301.456 241.722 292.925 241.722H263.945V287.827H233.271ZM306.475 287.827L272.978 228.173L305.91 223.468L343.171 288.015L306.475 287.827ZM263.945 216.693H290.103C293.364 216.693 296.187 216.003 298.571 214.623C301.08 213.118 302.962 211.11 304.216 208.601C305.596 206.092 306.286 203.207 306.286 199.945C306.286 196.558 305.471 193.609 303.84 191.1C302.335 188.591 300.139 186.646 297.254 185.266C294.494 183.761 291.169 183.008 287.28 183.008H263.945V216.693Z" fill="white"/>
<path d="M412.342 287.827V226.479C412.342 221.335 410.899 217.572 408.014 215.188C405.254 212.679 401.364 211.424 396.346 211.424C391.453 211.424 387.062 212.365 383.173 214.247C379.409 216.003 375.771 218.952 372.258 223.092L354.193 205.59C360.215 199.443 367.115 194.613 374.893 191.1C382.671 187.587 391.14 185.831 400.298 185.831C408.704 185.831 415.98 187.086 422.127 189.595C428.275 192.104 433.042 195.93 436.429 201.074C439.817 206.218 441.51 212.741 441.51 220.645V287.827H412.342ZM386.372 289.709C380.099 289.709 374.391 288.454 369.247 285.945C364.229 283.436 360.215 279.986 357.204 275.595C354.318 271.079 352.875 265.81 352.875 259.788C352.875 254.644 353.816 250.127 355.698 246.238C357.58 242.349 360.34 239.15 363.978 236.641C367.742 234.006 372.384 232.062 377.904 230.807C383.549 229.427 390.073 228.737 397.475 228.737H427.773L426.079 247.744H398.228C395.593 247.744 393.272 247.995 391.265 248.497C389.258 248.873 387.564 249.563 386.184 250.567C384.804 251.445 383.738 252.511 382.985 253.766C382.358 255.02 382.044 256.526 382.044 258.282C382.044 260.164 382.546 261.795 383.55 263.175C384.553 264.555 385.87 265.621 387.501 266.374C389.258 267.127 391.265 267.503 393.523 267.503C396.785 267.503 399.859 267.001 402.744 265.998C405.755 264.869 408.39 263.3 410.648 261.293C413.032 259.286 414.914 256.965 416.294 254.33L421.563 267.88C418.928 272.145 415.729 275.909 411.965 279.171C408.327 282.433 404.313 285.004 399.922 286.886C395.656 288.768 391.14 289.709 386.372 289.709Z" fill="white"/>
<path d="M473.955 287.827V162.684H504.252V287.827H473.955ZM456.265 214.435V187.901H523.447V214.435H456.265Z" fill="white"/>
<path d="M578.199 289.709C568.664 289.709 560.133 288.204 552.606 285.193C545.078 282.056 539.056 277.791 534.54 272.396L552.982 256.589C556.871 260.478 561.262 263.363 566.155 265.245C571.048 267.001 575.69 267.88 580.081 267.88C581.712 267.88 583.154 267.691 584.409 267.315C585.663 266.939 586.73 266.437 587.608 265.81C588.612 265.057 589.364 264.241 589.866 263.363C590.368 262.359 590.619 261.23 590.619 259.976C590.619 257.467 589.553 255.585 587.42 254.33C586.416 253.703 584.597 252.95 581.962 252.072C579.328 251.068 575.941 250.065 571.8 249.061C565.904 247.556 560.76 245.736 556.369 243.604C552.104 241.471 548.591 239.025 545.831 236.265C543.322 233.755 541.377 230.87 539.997 227.608C538.743 224.346 538.115 220.708 538.115 216.693C538.115 210.546 539.935 205.151 543.573 200.509C547.336 195.868 552.229 192.292 558.251 189.783C564.273 187.148 570.797 185.831 577.822 185.831C583.342 185.831 588.549 186.458 593.442 187.713C598.46 188.967 603.102 190.724 607.367 192.982C611.758 195.24 615.648 197.938 619.035 201.074L603.039 218.952C600.906 216.819 598.397 214.937 595.512 213.306C592.626 211.55 589.741 210.17 586.855 209.166C583.97 208.037 581.272 207.472 578.763 207.472C576.881 207.472 575.188 207.66 573.682 208.037C572.302 208.288 571.11 208.79 570.107 209.542C569.229 210.17 568.539 210.985 568.037 211.989C567.535 212.867 567.284 213.871 567.284 215C567.284 216.38 567.598 217.634 568.225 218.763C568.978 219.767 569.981 220.708 571.236 221.586C572.365 222.213 574.31 223.029 577.07 224.033C579.955 225.036 583.719 226.165 588.361 227.42C594.257 229.051 599.275 230.933 603.416 233.065C607.681 235.073 611.068 237.456 613.578 240.216C615.71 242.349 617.216 244.858 618.094 247.744C619.098 250.504 619.599 253.515 619.599 256.777C619.599 263.175 617.78 268.883 614.142 273.901C610.629 278.794 605.736 282.683 599.464 285.569C593.316 288.329 586.228 289.709 578.199 289.709Z" fill="white"/>
<path d="M0 220.12H203.867V290.689H0V220.12Z" fill="#59289F"/>
<path d="M0 159.352H152.9L135.258 198.557H0V159.352Z" fill="#59289F"/>
<path d="M499.871 69.6746H564.55V100.242H499.871V69.6746Z" fill="#B4B4B4"/>
<path d="M594.336 37.8158V129.517H564.55V37.8158L594.336 37.8158Z" fill="#67FF50"/>
<path d="M619.442 59.342V107.991H600.719V59.342L619.442 59.342Z" fill="#67FF50"/>
<path d="M463.702 60.203L463.702 108.852H444.979L444.979 60.203L463.702 60.203Z" fill="#67FF50"/>
<path d="M499.871 38.2463L499.871 129.948H470.084L470.084 38.2463L499.871 38.2463Z" fill="#67FF50"/>
</svg>
